<svg width="221" height="233" viewBox="0 0 221 233" fill="none" xmlns="http://www.w3.org/2000/svg">
<path d="M19.0537 169.555C10.7937 164.185 0.873707 152.505 0.053707 137.245C-0.436293 127.975 2.37371 114.165 18.5537 101.005L25.8537 109.975C16.0337 117.965 11.1037 127.185 11.6037 136.625C12.1437 146.855 18.9037 155.665 25.3537 159.855L19.0537 169.555Z" fill="url(#paint0_linear)"/>
<path d="M8.10015 112.039L7.35229 113.138L16.7872 119.554L17.5351 118.455L8.10015 112.039Z" fill="#A08BE8"/>
<path d="M13.6251 145.273L3.11426 149.711L3.63163 150.936L14.1425 146.498L13.6251 145.273Z" fill="#A08BE8"/>
<path d="M11.8937 131.325L1.47366 125.005C0.26366 129.185 -0.0763398 133.055 0.0136603 136.385L11.7637 132.345C11.8037 132.005 11.8437 131.665 11.8937 131.325Z" fill="#A08BE8"/>
<path d="M25.9537 112.085C31.8576 112.085 36.6437 107.299 36.6437 101.395C36.6437 95.4907 31.8576 90.7046 25.9537 90.7046C20.0497 90.7046 15.2637 95.4907 15.2637 101.395C15.2637 107.299 20.0497 112.085 25.9537 112.085Z" fill="url(#paint1_radial)"/>
<path d="M161.754 140.575C161.674 140.575 161.594 140.575 161.514 140.575C158.374 140.485 155.524 138.705 154.064 135.935L137.814 104.975C136.274 102.045 137.404 98.4146 140.334 96.8746C143.264 95.3346 146.894 96.4646 148.434 99.3946L161.934 125.115L175.194 102.925C176.894 100.085 180.574 99.1546 183.424 100.855C186.264 102.555 187.194 106.235 185.494 109.085L169.194 136.345C167.644 138.965 164.804 140.575 161.754 140.575Z" fill="url(#paint2_linear)"/>
<path d="M166.374 117.695L176.384 124.335L177.074 123.185L167.064 116.545L166.374 117.695Z" fill="#A08BE8"/>
<path d="M147.264 122.965L158.034 117.675L157.414 116.495L146.644 121.785L147.264 122.965Z" fill="#A08BE8"/>
<path d="M161.514 140.575C161.594 140.575 161.674 140.575 161.754 140.575C164.764 140.575 167.564 139.005 169.144 136.435L161.944 125.115L154.864 137.145C156.434 139.215 158.864 140.495 161.514 140.575Z" fill="#A08BE8"/>
<path d="M141.214 112.085C147.118 112.085 151.904 107.299 151.904 101.395C151.904 95.4907 147.118 90.7046 141.214 90.7046C135.31 90.7046 130.524 95.4907 130.524 101.395C130.524 107.299 135.31 112.085 141.214 112.085Z" fill="url(#paint3_radial)"/>
<path d="M147.204 94.3346C145.504 89.0546 141.894 85.4446 136.744 83.8546C137.404 85.1646 138.014 86.5146 138.574 87.8846C141.324 89.4346 143.264 91.9046 144.344 95.2546C147.834 106.075 141.854 123.545 134.084 133.075L136.404 134.975C146.984 122.005 150.244 103.775 147.204 94.3346Z" fill="#605D5A"/>
<path d="M24.0037 122.325C18.4937 107.135 18.0437 96.4146 22.6837 90.4346C26.7337 85.2246 33.0237 85.7746 33.2937 85.8046L33.0037 88.7846C32.8137 88.7646 28.0437 88.3946 25.0337 92.3046C22.3237 95.8246 20.4437 103.705 26.8237 121.295L24.0037 122.325Z" fill="#605D5A"/>
<path d="M133.544 137.885L132.144 135.235C135.184 133.625 137.334 135.875 133.544 137.885Z" fill="#605D5A"/>
<path d="M133.324 141.895C136.019 141.895 138.204 139.71 138.204 137.015C138.204 134.319 136.019 132.135 133.324 132.135C130.629 132.135 128.444 134.319 128.444 137.015C128.444 139.71 130.629 141.895 133.324 141.895Z" fill="#605D5A"/>
<path d="M133.264 139.675C134.667 139.675 135.804 138.537 135.804 137.135C135.804 135.732 134.667 134.595 133.264 134.595C131.861 134.595 130.724 135.732 130.724 137.135C130.724 138.537 131.861 139.675 133.264 139.675Z" fill="#72ACF1"/>
<path d="M33.2536 148.405C33.2336 148.405 33.2236 148.405 33.2136 148.405C33.0336 148.395 28.6836 148.135 26.8736 145.485C25.8736 144.025 22.6236 134.565 22.4836 134.165C22.3936 133.905 22.5336 133.615 22.7936 133.525C23.0636 133.435 23.3436 133.575 23.4336 133.835C24.3636 136.535 26.9336 143.805 27.7036 144.915C29.2336 147.155 33.2336 147.395 33.2736 147.395C33.5536 147.405 33.7636 147.645 33.7436 147.925C33.7136 148.185 33.5036 148.395 33.2536 148.405Z" fill="#E1DFDD"/>
<path d="M34.3636 149.365C35.1258 149.365 35.7436 148.747 35.7436 147.985C35.7436 147.222 35.1258 146.605 34.3636 146.605C33.6015 146.605 32.9836 147.222 32.9836 147.985C32.9836 148.747 33.6015 149.365 34.3636 149.365Z" fill="#797673"/>
<path d="M37.4537 146.455C37.3337 146.455 37.2137 146.415 37.1237 146.335C36.9137 146.155 36.8937 145.835 37.0737 145.625C37.1037 145.595 39.7037 142.545 39.1537 139.895C38.8837 138.575 35.4437 131.675 34.1337 129.135C34.0037 128.885 34.1037 128.585 34.3537 128.465C34.5937 128.345 34.9037 128.435 35.0237 128.685C35.2137 129.065 39.7737 137.975 40.1237 139.695C40.7737 142.835 37.9437 146.145 37.8237 146.285C37.7237 146.395 37.5937 146.455 37.4537 146.455Z" fill="#E1DFDD"/>
<path d="M36.7137 148.205C37.4759 148.205 38.0937 147.587 38.0937 146.825C38.0937 146.062 37.4759 145.445 36.7137 145.445C35.9516 145.445 35.3337 146.062 35.3337 146.825C35.3337 147.587 35.9516 148.205 36.7137 148.205Z" fill="#797673"/>
<path d="M30.3737 121.365C28.8937 120.635 27.3537 120.475 25.7637 120.875C25.0437 121.145 24.1237 121.725 23.0237 122.155C22.0037 122.915 21.2437 123.915 20.7837 125.145C18.9237 130.035 22.4337 136.915 22.5837 137.205C22.8637 137.735 23.4037 138.035 23.9737 138.015C24.1837 138.005 24.4037 137.955 24.6037 137.845C25.3437 137.465 25.6237 136.565 25.2537 135.825C24.4037 134.175 22.4537 129.225 23.5937 126.205C23.9937 125.145 24.7637 124.405 25.9237 123.955C27.0337 123.525 28.0537 123.555 29.0437 124.045C31.8937 125.455 33.8337 130.285 34.3437 132.035C34.5737 132.825 35.4037 133.295 36.2037 133.055C36.9937 132.825 37.4537 131.995 37.2237 131.195C37.1237 130.885 34.9837 123.645 30.3737 121.365Z" fill="#605D5A"/>
<path d="M79.1736 145.925L79.1436 177.715L67.7236 177.695L67.7636 145.915L79.1736 145.925Z" fill="url(#paint4_linear)"/>
<path d="M67.7437 167.345H79.1537V165.945H67.7437V167.345Z" fill="#A08BE8"/>
<path d="M102.094 145.925L102.064 177.715L90.6536 177.695L90.6836 145.915L102.094 145.925Z" fill="url(#paint5_linear)"/>
<path d="M90.6636 167.345H102.074V165.945H90.6636V167.345Z" fill="#A08BE8"/>
<path d="M79.6937 191.325C83.8437 205.835 82.1537 228.845 81.9737 230.055C81.7337 231.745 81.5037 232.925 79.1037 232.925C76.1237 232.925 63.3037 232.925 63.3037 232.925L70.0337 192.255L79.6937 191.325Z" fill="#8065E0"/>
<path d="M66.4437 193.565C65.4437 200.685 58.3337 210.695 44.8837 221.165C43.3137 222.385 42.5037 223.685 42.5037 225.505V231.335C42.5037 232.195 43.2037 232.895 44.0637 232.895H65.6637C66.2737 232.895 66.7637 232.405 66.7637 231.795V225.065C66.7637 222.965 67.1837 221.895 69.3337 220.345C74.7137 216.485 78.1137 203.455 78.2237 194.195C78.3337 184.925 66.4437 193.565 66.4437 193.565Z" fill="#A08BE8"/>
<path d="M42.6936 224.065C42.5636 224.505 42.4937 224.985 42.4937 225.495V231.325C42.4937 232.185 43.1936 232.885 44.0536 232.885H65.6537C66.2637 232.885 66.7537 232.395 66.7537 231.785V225.055C66.7537 224.695 66.7637 224.365 66.8037 224.065H42.6936Z" fill="#D0C5F3"/>
<path d="M89.8336 191.325C85.6836 205.835 87.3736 228.845 87.5536 230.055C87.7936 231.745 88.0236 232.925 90.4236 232.925C93.4036 232.925 106.224 232.925 106.224 232.925L99.4936 192.255L89.8336 191.325Z" fill="#8065E0"/>
<path d="M103.084 193.565C104.084 200.685 111.194 210.695 124.644 221.165C126.214 222.385 127.024 223.685 127.024 225.505V231.335C127.024 232.195 126.324 232.895 125.464 232.895H103.864C103.254 232.895 102.764 232.405 102.764 231.795V225.065C102.764 222.965 102.344 221.895 100.194 220.345C94.8136 216.485 91.4136 203.455 91.3036 194.195C91.1836 184.925 103.084 193.565 103.084 193.565Z" fill="#A08BE8"/>
<path d="M126.824 224.065C126.954 224.505 127.024 224.985 127.024 225.495V231.325C127.024 232.185 126.324 232.885 125.464 232.885H103.864C103.254 232.885 102.764 232.395 102.764 231.785V225.055C102.764 224.695 102.754 224.365 102.714 224.065H126.824Z" fill="#D0C5F3"/>
<path d="M69.3437 177.295H77.6537C80.2837 177.295 82.4137 179.425 82.4137 182.055V190.765C82.4137 193.395 80.2837 195.525 77.6537 195.525H69.3437C66.7137 195.525 64.5837 193.395 64.5837 190.765V182.055C64.5837 179.425 66.7137 177.295 69.3437 177.295Z" fill="url(#paint6_radial)"/>
<path d="M84.8936 153.425C117.059 153.425 143.134 127.35 143.134 95.1846C143.134 63.0195 117.059 36.9446 84.8936 36.9446C52.7285 36.9446 26.6536 63.0195 26.6536 95.1846C26.6536 127.35 52.7285 153.425 84.8936 153.425Z" fill="url(#paint7_radial)"/>
<path d="M133.954 99.9946C132.964 99.6446 132.294 98.6546 132.384 97.5546C133.944 79.3046 124.754 61.5246 108.964 52.2646C107.834 51.6046 107.454 50.1446 108.124 49.0246C108.784 47.8946 110.244 47.5146 111.364 48.1846C128.714 58.3646 138.824 77.9146 137.104 97.9646C136.994 99.2646 135.844 100.235 134.544 100.125C134.344 100.115 134.144 100.065 133.954 99.9946Z" fill="url(#paint8_linear)"/>
<path d="M135.104 124.675H34.6736C36.9236 128.505 39.6036 132.045 42.6436 135.255H127.124C130.174 132.055 132.854 128.505 135.104 124.675Z" fill="url(#paint9_radial)"/>
<path d="M33.7137 67.3646C32.2637 70.0246 31.0237 72.8146 30.0037 75.7146H139.794C138.764 72.8246 137.524 70.0346 136.084 67.3646H33.7137Z" fill="#605D5A"/>
<path d="M72.6238 78.2346C82.714 78.2346 90.8938 70.0548 90.8938 59.9646C90.8938 49.8743 82.714 41.6946 72.6238 41.6946C62.5335 41.6946 54.3538 49.8743 54.3538 59.9646C54.3538 70.0548 62.5335 78.2346 72.6238 78.2346Z" fill="white"/>
<path d="M72.6236 76.3546C81.6756 76.3546 89.0136 69.0165 89.0136 59.9646C89.0136 50.9126 81.6756 43.5746 72.6236 43.5746C63.5717 43.5746 56.2336 50.9126 56.2336 59.9646C56.2336 69.0165 63.5717 76.3546 72.6236 76.3546Z" fill="url(#paint10_radial)"/>
<path d="M72.6237 65.5646C75.7165 65.5646 78.2237 63.0574 78.2237 59.9646C78.2237 56.8718 75.7165 54.3646 72.6237 54.3646C69.5309 54.3646 67.0237 56.8718 67.0237 59.9646C67.0237 63.0574 69.5309 65.5646 72.6237 65.5646Z" fill="#B3AFAB"/>
<path d="M36.5837 95.1846C36.5837 101.495 37.8037 107.515 40.0037 113.035C40.5337 114.375 41.8337 115.255 43.2737 115.255H126.504C127.944 115.255 129.244 114.375 129.774 113.035C131.974 107.515 133.194 101.495 133.194 95.1846C133.194 92.6046 132.984 90.0746 132.594 87.6046C132.324 85.9146 130.844 84.6746 129.124 84.6746H40.6537C38.9337 84.6746 37.4537 85.9146 37.1837 87.6046C36.7937 90.0746 36.5837 92.6046 36.5837 95.1846Z" fill="white"/>
<path d="M132.594 87.6046C132.324 85.9146 130.844 84.6746 129.124 84.6746H125.064C126.784 84.6746 128.264 85.9146 128.534 87.6046C128.924 90.0746 129.134 92.6046 129.134 95.1846C129.134 100.075 128.394 104.785 127.044 109.235C126.544 110.455 125.224 111.195 123.874 111.195H45.9437C44.5037 111.195 43.0837 110.365 42.6737 108.975C42.3837 107.995 42.1238 106.985 41.8838 105.995C41.0838 102.515 40.6538 98.9046 40.6538 95.1846C40.6538 92.6046 40.8637 90.0746 41.2537 87.6046C41.5237 85.9146 43.0038 84.6746 44.7238 84.6746H40.6637C38.9437 84.6746 37.4637 85.9146 37.1937 87.6046C36.8037 90.0746 36.5938 92.6046 36.5938 95.1846C36.5938 101.495 37.8137 107.515 40.0137 113.035C40.5437 114.375 41.8437 115.255 43.2837 115.255H47.3438H122.454H126.514C127.954 115.255 129.254 114.375 129.784 113.035C131.984 107.515 133.204 101.495 133.204 95.1846C133.194 92.6046 132.984 90.0746 132.594 87.6046Z" fill="#512BD4"/>
<path d="M37.8836 154.755L21.8636 152.625C19.0136 152.245 16.3836 154.255 16.0036 157.105C15.6236 159.955 17.6336 162.585 20.4836 162.965L36.5036 165.095C39.3536 165.475 41.9836 163.465 42.3636 160.615C42.7436 157.765 40.7436 155.135 37.8836 154.755Z" fill="#D0C5F3"/>
<path d="M7.9836 166.015L52.4436 158.705C53.8636 158.475 55.0536 159.685 55.1136 161.405L56.2236 195.735C56.2836 197.455 55.1736 199.045 53.7536 199.275L9.2936 206.585C7.8736 206.815 6.6836 205.605 6.6236 203.885L5.5136 169.555C5.4636 167.835 6.5636 166.245 7.9836 166.015Z" fill="#605D5A"/>
<path d="M9.51367 168.365L11.0237 179.125C11.4437 181.985 14.1037 183.975 16.9737 183.545C19.8337 183.125 21.8237 180.465 21.3937 177.595L19.8537 166.555L9.51367 168.365Z" fill="#D0C5F3"/>
<path d="M14.4136 171.615L22.4436 184.265C24.0036 186.705 27.2436 187.415 29.6836 185.855C32.1236 184.295 32.8336 181.055 31.2736 178.615L25.3336 169.185L14.4136 171.615Z" fill="#D0C5F3"/>
<path d="M18.7837 166.935L29.4937 177.445C31.5537 179.475 34.8737 179.455 36.9037 177.385C38.9337 175.325 38.9137 172.005 36.8437 169.975L25.9437 159.275L18.7837 166.935Z" fill="#D0C5F3"/>
<path d="M18.9336 174.495C24.9977 174.495 29.9136 169.579 29.9136 163.515C29.9136 157.451 24.9977 152.535 18.9336 152.535C12.8695 152.535 7.95361 157.451 7.95361 163.515C7.95361 169.579 12.8695 174.495 18.9336 174.495Z" fill="url(#paint11_radial)"/>
<path d="M75.3399 139.793L94.9099 139.793L94.9099 122.483L75.3399 122.483L75.3399 139.793Z" fill="#512BD4"/>
<path d="M78.7537 135.335C78.6237 135.335 78.5137 135.295 78.4237 135.205C78.3337 135.115 78.2837 135.015 78.2837 134.885C78.2837 134.765 78.3337 134.655 78.4237 134.565C78.5137 134.475 78.6237 134.435 78.7537 134.435C78.8837 134.435 78.9937 134.485 79.0837 134.565C79.1737 134.655 79.2237 134.765 79.2237 134.885C79.2237 135.005 79.1737 135.115 79.0837 135.205C78.9937 135.285 78.8837 135.335 78.7537 135.335Z" fill="white"/>
<path d="M83.9536 135.275H83.1036L80.8836 131.755C80.8236 131.665 80.7836 131.575 80.7436 131.475H80.7236C80.7436 131.575 80.7536 131.795 80.7436 132.135L80.7336 135.275H79.9836L79.9936 130.485H80.8936L83.0436 133.925C83.1336 134.065 83.1936 134.165 83.2236 134.215H83.2336C83.2136 134.085 83.2036 133.875 83.2036 133.575L83.2136 130.495H83.9636L83.9536 135.275Z" fill="white"/>
<path d="M87.5936 135.285L84.9736 135.275L84.9836 130.485L87.5036 130.495V131.165H85.7636V132.515H87.3636V133.185H85.7636V134.595H87.6136L87.5936 135.285Z" fill="white"/>
<path d="M91.3338 131.185H89.9938L89.9838 135.295H89.2138L89.2238 131.185H87.8838V130.515L91.3338 130.525V131.185Z" fill="white"/>
<path fill-rule="evenodd" clip-rule="evenodd" d="M29.1178 112H140.669C140.868 111.338 141.056 110.671 141.232 110H28.5547C28.7308 110.671 28.9186 111.338 29.1178 112Z" fill="#72ACF1"/>
<path fill-rule="evenodd" clip-rule="evenodd" d="M35.4646 126H134.322C134.734 125.342 135.132 124.675 135.517 124H34.27C34.6552 124.675 35.0535 125.342 35.4646 126Z" fill="#72ACF1"/>
<path d="M51.5527 109.743C51.5527 109.743 74.8586 100 84.8904 100C94.9221 100 117.908 109.743 117.908 109.743C117.908 109.743 114.575 120.551 119.857 126.701C114.468 133.855 101.407 148.591 84.8904 148.591C64.7965 148.591 56.1043 134.434 50 126.701C54.4146 119.5 51.5527 109.743 51.5527 109.743Z" fill="#A7CBF6"/>
<path d="M54.6733 118.952C54.6733 118.952 75.1935 114.751 85.3166 114.751C95.4397 114.751 113.89 118.709 113.89 118.709C113.89 118.709 101.94 117.537 85.3166 117.537C68.6934 117.537 54.6733 118.952 54.6733 118.952Z" fill="#72ACF1"/>
<path d="M113.874 131.054C113.874 131.054 99.078 140.264 84.5251 140.264C68.9371 140.264 54.6582 131.282 54.6582 131.282C54.6582 131.282 67.9019 137.463 84.5251 137.463C101.148 137.463 113.874 131.054 113.874 131.054Z" fill="#72ACF1"/>
<path d="M191.874 105.485L200.904 99.4446C203.304 97.8146 203.924 94.5646 202.294 92.1646C200.664 89.7646 197.414 89.1446 195.014 90.7746L185.754 96.9646L191.874 105.485Z" fill="#D0C5F3"/>
<path d="M185.514 101.375L194.384 95.1146C196.734 93.4246 197.274 90.1546 195.594 87.8046C193.904 85.4546 190.634 84.9146 188.284 86.5946L179.184 93.0146L185.514 101.375Z" fill="#D0C5F3"/>
<path d="M188.664 113.125L198.694 108.965C201.364 107.835 202.604 104.765 201.484 102.095C200.354 99.4246 197.284 98.1845 194.614 99.3045L184.324 103.575L188.664 113.125Z" fill="#D0C5F3"/>
<path d="M185.734 103.125L203.424 86.3046C205.504 84.2846 205.544 80.9646 203.534 78.8946C201.514 76.8146 198.194 76.7746 196.124 78.7846L178.234 95.7946L185.734 103.125Z" fill="#D0C5F3"/>
<path d="M213.524 79.9046L219.274 81.0146C219.674 81.0946 219.984 81.4246 220.034 81.8346C220.084 82.2446 219.864 82.6346 219.494 82.8046L214.174 85.2446C214.084 85.2846 213.994 85.3146 213.894 85.3246L166.924 90.9446C166.404 91.0046 165.934 90.6346 165.874 90.1146L165.454 86.5646C165.394 86.0446 165.764 85.5746 166.284 85.5146L213.254 79.8946C213.334 79.8746 213.434 79.8846 213.524 79.9046Z" fill="#FAE969"/>
<path d="M212.574 83.0846L220.034 81.8246C220.084 82.2346 219.864 82.6246 219.494 82.7946L214.174 85.2346C214.084 85.2746 213.994 85.3046 213.894 85.3146L166.924 90.9346C166.404 90.9946 165.934 90.6246 165.874 90.1046L165.724 88.8546L212.574 83.0846Z" fill="#E8D441"/>
<path d="M214.164 85.2346L213.364 79.8946C213.414 79.8946 213.474 79.8946 213.524 79.9046L219.274 81.0146C219.674 81.0946 219.984 81.4246 220.034 81.8346C220.084 82.2446 219.864 82.6346 219.494 82.8046L214.164 85.2346Z" fill="#B3AFAB"/>
<path d="M183.364 104.295L185.644 83.6846C185.894 80.8046 183.764 78.2546 180.884 78.0046C178.004 77.7546 175.454 79.8846 175.204 82.7646L172.894 103.645L183.364 104.295Z" fill="#D0C5F3"/>
<path d="M181.714 115.755C187.772 115.755 192.684 110.843 192.684 104.785C192.684 98.726 187.772 93.8146 181.714 93.8146C175.655 93.8146 170.744 98.726 170.744 104.785C170.744 110.843 175.655 115.755 181.714 115.755Z" fill="url(#paint12_radial)"/>
<path d="M64.5666 105.216C67.0848 105.179 69.0751 101.719 69.012 97.489C68.949 93.2589 66.8565 89.8602 64.3384 89.8977C61.8202 89.9352 59.8299 93.3948 59.8929 97.6249C59.956 101.855 62.0485 105.254 64.5666 105.216Z" fill="#512BD4"/>
<path d="M64.4137 93.7246C62.7537 95.3846 62.7537 98.0846 64.4137 99.7446C65.5437 100.875 67.1537 101.235 68.5937 100.825C68.8737 99.8146 69.0237 98.6846 69.0037 97.4846C68.9737 95.5646 68.5237 93.8246 67.8137 92.4846C66.6037 92.3846 65.3437 92.7946 64.4137 93.7246Z" fill="#8065E0"/>
<path d="M110.145 97.5897C110.208 93.3596 108.218 89.9 105.7 89.8625C103.182 89.825 101.089 93.2237 101.026 97.4538C100.963 101.684 102.953 105.143 105.471 105.181C107.99 105.219 110.082 101.82 110.145 97.5897Z" fill="#512BD4"/>
<path d="M105.534 93.4746C103.874 95.1346 103.874 97.8346 105.534 99.4946C106.674 100.635 108.294 100.995 109.744 100.575C109.984 99.6646 110.134 98.6546 110.144 97.5946C110.174 95.5246 109.714 93.6346 108.934 92.2446C107.724 92.1346 106.464 92.5446 105.534 93.4746Z" fill="#8065E0"/>
<path d="M92.3337 177.295H100.644C103.274 177.295 105.404 179.425 105.404 182.055V190.765C105.404 193.395 103.274 195.525 100.644 195.525H92.3337C89.7037 195.525 87.5737 193.395 87.5737 190.765V182.055C87.5737 179.425 89.7037 177.295 92.3337 177.295Z" fill="url(#paint13_radial)"/>
<path d="M80.4813 33.8558L91.7608 34.0125L90.2738 22.5392L82.1791 22.4195L80.4813 33.8558Z" fill="#D0C5F3"/>
<path d="M88.8393 24.4729C83.0993 25.8646 77.2873 22.3869 75.8503 16.698C74.4133 11.009 77.8925 5.28093 83.6325 3.88921C89.3726 2.49749 95.1846 5.97515 96.6216 11.6641C98.0585 17.353 94.5794 23.0811 88.8393 24.4729Z" fill="url(#paint14_radial)"/>
<path d="M76.1003 40.7952C75.5967 40.783 75.1821 40.3455 75.2532 39.8492C75.8999 34.5646 80.4735 30.504 85.9874 30.5845C91.5013 30.665 95.9998 34.8451 96.5492 40.1509C96.5998 40.6535 96.1877 41.0801 95.6841 41.0679L76.1003 40.7952Z" fill="url(#paint15_radial)"/>
<defs>
<linearGradient id="paint0_linear" x1="32.1434" y1="108.85" x2="2.58282" y2="160.05" gradientUnits="userSpaceOnUse">
<stop offset="0.1197" stop-color="#958FE7"/>
<stop offset="0.2551" stop-color="#BBB7EF"/>
</linearGradient>
<radialGradient id="paint1_radial" cx="0" cy="0" r="1" gradientUnits="userSpaceOnUse" gradientTransform="translate(22.9711 99.3772) scale(10.6947)">
<stop stop-color="#8065E0"/>
<stop offset="1" stop-color="#512BD4"/>
</radialGradient>
<linearGradient id="paint2_linear" x1="136.982" y1="100.826" x2="176.95" y2="123.901" gradientUnits="userSpaceOnUse">
<stop offset="0.1758" stop-color="#958FE7"/>
<stop offset="0.5666" stop-color="#BBB7EF"/>
</linearGradient>
<radialGradient id="paint3_radial" cx="0" cy="0" r="1" gradientUnits="userSpaceOnUse" gradientTransform="translate(140.981 99.694) scale(10.6947)">
<stop stop-color="#8065E0"/>
<stop offset="1" stop-color="#512BD4"/>
</radialGradient>
<linearGradient id="paint4_linear" x1="73.4514" y1="145.915" x2="73.4514" y2="177.711" gradientUnits="userSpaceOnUse">
<stop offset="0.2368" stop-color="#958FE7"/>
<stop offset="0.4881" stop-color="#BBB7EF"/>
</linearGradient>
<linearGradient id="paint5_linear" x1="96.3728" y1="145.915" x2="96.3728" y2="177.711" gradientUnits="userSpaceOnUse">
<stop offset="0.2368" stop-color="#958FE7"/>
<stop offset="0.4881" stop-color="#BBB7EF"/>
</linearGradient>
<radialGradient id="paint6_radial" cx="0" cy="0" r="1" gradientUnits="userSpaceOnUse" gradientTransform="translate(73.4951 186.405) rotate(180) scale(9.015)">
<stop stop-color="#8065E0"/>
<stop offset="1" stop-color="#512BD4"/>
</radialGradient>
<radialGradient id="paint7_radial" cx="0" cy="0" r="1" gradientUnits="userSpaceOnUse" gradientTransform="translate(69.7748 59.9432) rotate(180) scale(79.2389)">
<stop offset="0.186" stop-color="#A08BE8"/>
<stop offset="0.7272" stop-color="#8065E0"/>
</radialGradient>
<linearGradient id="paint8_linear" x1="101.609" y1="66.631" x2="142.911" y2="81.3411" gradientUnits="userSpaceOnUse">
<stop stop-color="#BDB9F0"/>
<stop offset="0.2325" stop-color="#CEC3E2" stop-opacity="0.7675"/>
<stop offset="0.7251" stop-color="#EDD6C9" stop-opacity="0.2749"/>
<stop offset="1" stop-color="#F9DDBF" stop-opacity="0"/>
</linearGradient>
<radialGradient id="paint9_radial" cx="0" cy="0" r="1" gradientUnits="userSpaceOnUse" gradientTransform="translate(91.5193 132.632) rotate(180) scale(55.0601)">
<stop offset="0.4614" stop-color="#A08BE8"/>
<stop offset="0.5173" stop-color="#A793EA"/>
<stop offset="0.7808" stop-color="#C5B7F0"/>
<stop offset="0.9216" stop-color="#D0C5F3"/>
</radialGradient>
<radialGradient id="paint10_radial" cx="0" cy="0" r="1" gradientUnits="userSpaceOnUse" gradientTransform="translate(67.1676 45.7674) scale(33.5982)">
<stop offset="0.0933" stop-color="#E1DFDD"/>
<stop offset="0.6573" stop-color="white"/>
</radialGradient>
<radialGradient id="paint11_radial" cx="0" cy="0" r="1" gradientUnits="userSpaceOnUse" gradientTransform="translate(20.0178 154.831) scale(36.8177)">
<stop offset="0.0841" stop-color="#A08BE8"/>
<stop offset="1" stop-color="#8065E0"/>
</radialGradient>
<radialGradient id="paint12_radial" cx="0" cy="0" r="1" gradientUnits="userSpaceOnUse" gradientTransform="translate(185.103 100.921) rotate(-140.95) scale(16.4494)">
<stop stop-color="#A08BE8"/>
<stop offset="1" stop-color="#8065E0"/>
</radialGradient>
<radialGradient id="paint13_radial" cx="0" cy="0" r="1" gradientUnits="userSpaceOnUse" gradientTransform="translate(96.4849 186.405) rotate(180) scale(9.015)">
<stop stop-color="#8065E0"/>
<stop offset="1" stop-color="#512BD4"/>
</radialGradient>
<radialGradient id="paint14_radial" cx="0" cy="0" r="1" gradientUnits="userSpaceOnUse" gradientTransform="translate(85.9881 10.8336) rotate(166.38) scale(12.7437 12.6541)">
<stop stop-color="#A08BE8"/>
<stop offset="1" stop-color="#8065E0"/>
</radialGradient>
<radialGradient id="paint15_radial" cx="0" cy="0" r="1" gradientUnits="userSpaceOnUse" gradientTransform="translate(85.81 34.012) rotate(166.38) scale(13.7359 13.6393)">
<stop stop-color="#8065E0"/>
<stop offset="1" stop-color="#512BD4"/>
</radialGradient>
</defs>
</svg>
