<?xml version="1.0" encoding="UTF-8" standalone="no"?>
<!-- Generator: Adobe Illustrator 21.1.0, SVG Export Plug-In . SVG Version: 6.00 Build 0)  -->

<svg
   xmlns:dc="http://purl.org/dc/elements/1.1/"
   xmlns:cc="http://creativecommons.org/ns#"
   xmlns:rdf="http://www.w3.org/1999/02/22-rdf-syntax-ns#"
   xmlns:svg="http://www.w3.org/2000/svg"
   xmlns="http://www.w3.org/2000/svg"
   xmlns:sodipodi="http://sodipodi.sourceforge.net/DTD/sodipodi-0.dtd"
   xmlns:inkscape="http://www.inkscape.org/namespaces/inkscape"
   version="1.1"
   id="Layer_1"
   x="0px"
   y="0px"
   viewBox="0 0 380.9 85"
   style="enable-background:new 0 0 380.9 85;"
   xml:space="preserve"
   inkscape:version="0.91 r13725"
   sodipodi:docname="YouTube_Light_Logo_2017.svg"><metadata
     id="metadata33"><rdf:RDF><cc:Work
         rdf:about=""><dc:format>image/svg+xml</dc:format><dc:type
           rdf:resource="http://purl.org/dc/dcmitype/StillImage" /><dc:title></dc:title></cc:Work></rdf:RDF></metadata><defs
     id="defs31" /><sodipodi:namedview
     pagecolor="#ffffff"
     bordercolor="#666666"
     borderopacity="1"
     objecttolerance="10"
     gridtolerance="10"
     guidetolerance="10"
     inkscape:pageopacity="0"
     inkscape:pageshadow="2"
     inkscape:window-width="1366"
     inkscape:window-height="715"
     id="namedview29"
     showgrid="false"
     inkscape:zoom="0.96088214"
     inkscape:cx="366.69349"
     inkscape:cy="137.74929"
     inkscape:window-x="-8"
     inkscape:window-y="-8"
     inkscape:window-maximized="1"
     inkscape:current-layer="Layer_1" /><style
     type="text/css"
     id="style3">
	.st0{fill:#FF0000;}
	.st1{fill:#FFFFFF;}
	.st2{fill:#282828;}
</style><g
     id="g5"><path
       style="fill:#ffffff;fill-opacity:1"
       d="M 60.699219 0 C 60.699219 0 22.699219 0 13.199219 2.5 C 8.0992187 3.9 3.9 8.1007812 2.5 13.300781 C 0 22.800781 0 42.5 0 42.5 C 0 42.5 0 62.299219 2.5 71.699219 C 3.9 76.899219 7.9992188 81.000391 13.199219 82.400391 C 22.799219 85.000391 60.699219 85 60.699219 85 C 60.699219 85 98.699219 85 108.19922 82.5 C 113.39922 81.1 117.50039 77.000781 118.90039 71.800781 C 121.40039 62.300781 121.40039 42.599609 121.40039 42.599609 C 121.40039 42.599609 121.50039 22.800781 118.90039 13.300781 C 117.50039 8.1007813 113.39922 3.9996094 108.19922 2.5996094 C 98.699219 -0.000390625 60.699219 0 60.699219 0 z M 48.599609 24.300781 L 80.199219 42.5 L 48.599609 60.699219 L 48.599609 24.300781 z "
       id="path7" /></g><g
     id="g11"><g
       id="g13"><path
         class="st2"
         d="M176.3,77.4c-2.4-1.6-4.1-4.1-5.1-7.6c-1-3.4-1.5-8-1.5-13.6v-7.7c0-5.7,0.6-10.3,1.7-13.8    c1.2-3.5,3-6,5.4-7.6c2.5-1.6,5.7-2.4,9.7-2.4c3.9,0,7.1,0.8,9.5,2.4c2.4,1.6,4.1,4.2,5.2,7.6c1.1,3.4,1.7,8,1.7,13.8v7.7    c0,5.7-0.5,10.2-1.6,13.7c-1.1,3.4-2.8,6-5.2,7.6c-2.4,1.6-5.7,2.4-9.8,2.4C182.1,79.8,178.7,79,176.3,77.4z M189.8,69    c0.7-1.7,1-4.6,1-8.5V43.9c0-3.8-0.3-6.6-1-8.4c-0.7-1.8-1.8-2.6-3.5-2.6c-1.6,0-2.8,0.9-3.4,2.6c-0.7,1.8-1,4.6-1,8.4v16.6    c0,3.9,0.3,6.8,1,8.5c0.6,1.7,1.8,2.6,3.5,2.6C188,71.6,189.1,70.8,189.8,69z"
         id="path15"
         style="fill:#ffffff;fill-opacity:1" /><path
         class="st2"
         d="M360.9,56.3V59c0,3.4,0.1,6,0.3,7.7c0.2,1.7,0.6,3,1.3,3.7c0.6,0.8,1.6,1.2,3,1.2c1.8,0,3-0.7,3.7-2.1    c0.7-1.4,1-3.7,1.1-7l10.3,0.6c0.1,0.5,0.1,1.1,0.1,1.9c0,4.9-1.3,8.6-4,11s-6.5,3.6-11.4,3.6c-5.9,0-10-1.9-12.4-5.6    c-2.4-3.7-3.6-9.4-3.6-17.2v-9.3c0-8,1.2-13.8,3.7-17.5c2.5-3.7,6.7-5.5,12.6-5.5c4.1,0,7.3,0.8,9.5,2.3c2.2,1.5,3.7,3.9,4.6,7    c0.9,3.2,1.3,7.6,1.3,13.2v9.1H360.9z M362.4,33.9c-0.6,0.8-1,2-1.2,3.7c-0.2,1.7-0.3,4.3-0.3,7.8v3.8h8.8v-3.8    c0-3.4-0.1-6-0.3-7.8c-0.2-1.8-0.7-3-1.3-3.7c-0.6-0.7-1.6-1.1-2.8-1.1C363.9,32.7,363,33.1,362.4,33.9z"
         id="path17"
         style="fill:#ffffff;fill-opacity:1" /><path
         class="st2"
         d="M147.1,55.3L133.5,6h11.9l4.8,22.3c1.2,5.5,2.1,10.2,2.7,14.1h0.3c0.4-2.8,1.3-7.4,2.7-14l5-22.4h11.9    L159,55.3v23.6h-11.8V55.3z"
         id="path19"
         style="fill:#ffffff;fill-opacity:1" /><path
         class="st2"
         d="M241.6,25.7v53.3h-9.4l-1-6.5h-0.3c-2.5,4.9-6.4,7.4-11.5,7.4c-3.5,0-6.1-1.2-7.8-3.5    c-1.7-2.3-2.5-5.9-2.5-10.9V25.7h12v39.1c0,2.4,0.3,4.1,0.8,5.1c0.5,1,1.4,1.5,2.6,1.5c1,0,2-0.3,3-1c1-0.6,1.7-1.4,2.1-2.4V25.7    H241.6z"
         id="path21"
         style="fill:#ffffff;fill-opacity:1" /><path
         class="st2"
         d="M303.1,25.7v53.3h-9.4l-1-6.5h-0.3c-2.5,4.9-6.4,7.4-11.5,7.4c-3.5,0-6.1-1.2-7.8-3.5    c-1.7-2.3-2.5-5.9-2.5-10.9V25.7h12v39.1c0,2.4,0.3,4.1,0.8,5.1c0.5,1,1.4,1.5,2.6,1.5c1,0,2-0.3,3-1c1-0.6,1.7-1.4,2.1-2.4V25.7    H303.1z"
         id="path23"
         style="fill:#ffffff;fill-opacity:1" /><path
         class="st2"
         d="M274.2,15.7h-11.9v63.2h-11.7V15.7h-11.9V6h35.5V15.7z"
         id="path25"
         style="fill:#ffffff;fill-opacity:1" /><path
         class="st2"
         d="M342.8,34.2c-0.7-3.4-1.9-5.8-3.5-7.3c-1.6-1.5-3.9-2.3-6.7-2.3c-2.2,0-4.3,0.6-6.2,1.9    c-1.9,1.2-3.4,2.9-4.4,4.9h-0.1l0-28.1h-11.6v75.6h9.9l1.2-5h0.3c0.9,1.8,2.3,3.2,4.2,4.3c1.9,1,3.9,1.6,6.2,1.6    c4.1,0,7-1.9,8.9-5.6c1.9-3.7,2.9-9.6,2.9-17.5v-8.4C343.8,42.2,343.5,37.5,342.8,34.2z M331.8,55.9c0,3.9-0.2,6.9-0.5,9.1    c-0.3,2.2-0.9,3.8-1.6,4.7c-0.8,0.9-1.8,1.4-3,1.4c-1,0-1.9-0.2-2.7-0.7c-0.8-0.5-1.5-1.2-2-2.1V38.1c0.4-1.4,1.1-2.6,2.1-3.6    c1-0.9,2.1-1.4,3.2-1.4c1.2,0,2.2,0.5,2.8,1.4c0.7,1,1.1,2.6,1.4,4.8c0.3,2.3,0.4,5.5,0.4,9.6V55.9z"
         id="path27"
         style="fill:#ffffff;fill-opacity:1" /></g></g></svg>